<?xml version="1.0" encoding="utf-8"?>
<svg viewBox="0 0 500 500" xmlns="http://www.w3.org/2000/svg" xmlns:bx="https://boxy-svg.com">
  <defs>
    <filter id="drop-shadow-filter-0" x="-500%" y="-500%" width="1000%" height="1000%" bx:preset="drop-shadow 1 10 10 20 1 rgba(0,0,0,0.3)">
      <feGaussianBlur in="SourceAlpha" stdDeviation="20"/>
      <feOffset dx="10" dy="10"/>
      <feComponentTransfer result="offsetblur">
        <feFuncA id="spread-ctrl" type="linear" slope="2"/>
      </feComponentTransfer>
      <feFlood flood-color="rgba(0,0,0,0.3)"/>
      <feComposite in2="offsetblur" operator="in"/>
      <feMerge>
        <feMergeNode/>
        <feMergeNode in="SourceGraphic"/>
      </feMerge>
    </filter>
    <linearGradient gradientUnits="userSpaceOnUse" x1="286.12" y1="130.148" x2="286.12" y2="318.432" id="gradient-0">
      <stop offset="0" style="stop-color: #bada55"/>
      <stop offset="1" style="stop-color: #758d29"/>
    </linearGradient>
    <radialGradient gradientUnits="userSpaceOnUse" cx="286.12" cy="224.29" r="94.142" id="gradient-2">
      <stop offset="0" style="stop-color: #bada55"/>
      <stop offset="1" style="stop-color: #758d29"/>
    </radialGradient>
    <radialGradient gradientUnits="userSpaceOnUse" cx="200.946" cy="170.032" r="101.984" id="gradient-3" spreadMethod="repeat">
      <stop offset="0" style="stop-color: rgba(87, 56, 146, 1)"/>
      <stop offset="1" style="stop-color: rgba(43, 28, 72, 1)"/>
    </radialGradient>
    <linearGradient gradientUnits="userSpaceOnUse" x1="183.629" y1="237.469" x2="183.629" y2="426.19" id="gradient-4" spreadMethod="repeat" gradientTransform="matrix(1, 0, 0, 1, -17.66561, -37.223912)">
      <stop offset="0" style="stop-color: #bada55"/>
      <stop offset="1" style="stop-color: #758d29"/>
    </linearGradient>
    <linearGradient gradientUnits="userSpaceOnUse" x1="182.046" y1="191.402" x2="182.046" y2="428.738" id="gradient-1">
      <stop offset="0" style="stop-color: #bada55"/>
      <stop offset="1" style="stop-color: #758d29"/>
    </linearGradient>
  </defs>
  <circle style="fill: url(#gradient-3); paint-order: stroke markers; fill-opacity: 0.72;" cx="200.946" cy="170.032" r="101.984"/>
  <circle style="fill: rgb(216, 216, 216);" cx="211.672" cy="165.615" r="91.079"/>
  <circle style="filter: url(#drop-shadow-filter-0); stroke: url(#gradient-0); paint-order: fill; fill-opacity: 0.43; fill: url(#gradient-2);" cx="286.12" cy="224.29" r="94.142"/>
  <path d="M 171.293 320.82 Q 171.293 318.849 173.088 317.711 Q 175.005 316.497 177.51 317.23 Q 180.296 318.046 182.062 320.82 Q 184.046 323.937 183.728 327.999 Q 183.372 332.542 180.267 336.364 Q 176.828 340.596 171.293 342.358 Q 165.224 344.29 158.729 342.581 Q 151.673 340.725 146.423 335.178 Q 140.765 329.2 138.986 320.82 Q 137.082 311.848 140.206 302.872 Q 143.531 293.317 151.55 286.624 Q 160.044 279.535 171.293 277.745 Q 183.157 275.856 194.626 280.407 Q 206.676 285.188 214.815 295.693 Q 223.339 306.694 225.137 320.82 Q 227.016 335.572 221.032 349.537 Q 214.8 364.084 201.805 373.668 Q 188.299 383.629 171.293 385.433 Q 153.654 387.305 137.192 379.885 Q 120.148 372.204 109.119 356.716 Q 97.72 340.708 95.911 320.82 Q 94.044 300.295 102.902 281.334 Q 112.029 261.794 130.012 249.32 Q 148.521 236.481 171.293 234.669 Q 194.703 232.806 216.163 243.102 Q 238.201 253.676 252.119 274.155 Q 266.398 295.165 268.213 320.82 Q 270.073 347.116 258.337 371.075 Q 246.318 395.61 223.342 410.972 Q 199.833 426.692 171.293 428.509 Q 142.111 430.366 115.654 417.19 Q 88.62 403.726 71.815 378.254 Q 54.654 352.244 52.836 320.82 Q 50.98 288.753 65.597 259.796 Q 80.505 230.265 108.475 212.015 Q 136.984 193.414 171.293 191.594 Q 206.245 189.739 237.701 205.798 Q 269.731 222.15 289.424 252.617 Q 309.467 283.626 311.288 320.82 Q 313.072 357.239 296.846 390.22" style="stroke: black; fill-rule: evenodd; fill: url(#gradient-1); fill-opacity: 0.46;" bx:shape="spiral 171.293 320.82 0 143.457 0 1198.932 1@728b02bf"/>
  <path d="M 157.413 303.154 Q 157.413 301.587 158.84 300.682 Q 160.364 299.716 162.357 300.3 Q 164.572 300.948 165.976 303.154 Q 167.554 305.632 167.301 308.863 Q 167.018 312.475 164.549 315.514 Q 161.814 318.879 157.413 320.28 Q 152.587 321.816 147.423 320.457 Q 141.812 318.981 137.638 314.571 Q 133.138 309.818 131.724 303.154 Q 130.21 296.02 132.694 288.882 Q 135.338 281.285 141.714 275.963 Q 148.468 270.326 157.413 268.902 Q 166.847 267.401 175.966 271.019 Q 185.548 274.821 192.02 283.174 Q 198.798 291.922 200.228 303.154 Q 201.722 314.884 196.964 325.989 Q 192.008 337.556 181.675 345.177 Q 170.936 353.097 157.413 354.532 Q 143.387 356.02 130.297 350.121 Q 116.744 344.013 107.974 331.697 Q 98.91 318.969 97.472 303.154 Q 95.988 286.833 103.031 271.756 Q 110.289 256.218 124.588 246.3 Q 139.306 236.091 157.413 234.65 Q 176.028 233.169 193.092 241.356 Q 210.616 249.764 221.683 266.048 Q 233.037 282.754 234.48 303.154 Q 235.959 324.064 226.627 343.115 Q 217.07 362.625 198.801 374.84 Q 180.107 387.339 157.413 388.784 Q 134.209 390.261 113.171 379.784 Q 91.675 369.078 78.311 348.823 Q 64.666 328.141 63.22 303.154 Q 61.744 277.655 73.367 254.63 Q 85.221 231.148 107.462 216.637 Q 130.132 201.845 157.413 200.398 Q 185.206 198.923 210.218 211.693 Q 235.687 224.695 251.346 248.922 Q 267.284 273.579 268.732 303.154 Q 270.206 333.241 256.29 360.241 Q 254.04 364.606 251.42 368.768" style="stroke: black; fill: url(#gradient-4); fill-opacity: 0.32;" bx:shape="spiral 157.413 303.154 0 114.641 0 1204.914 1@2f50b2a3"/>
  <path d="M 313.249 148.58 Q 313.249 146.385 315.248 145.118 Q 317.382 143.766 320.172 144.583 Q 323.274 145.491 325.24 148.58 Q 327.45 152.05 327.096 156.574 Q 326.699 161.633 323.242 165.888 Q 319.413 170.601 313.249 172.563 Q 306.491 174.714 299.259 172.811 Q 291.402 170.744 285.556 164.569 Q 279.255 157.912 277.275 148.58 Q 275.155 138.589 278.633 128.594 Q 282.335 117.955 291.265 110.502 Q 300.723 102.608 313.249 100.614 Q 326.46 98.512 339.23 103.579 Q 352.649 108.903 361.712 120.6 Q 371.203 132.851 373.206 148.58 Q 375.298 165.007 368.635 180.557 Q 361.695 196.756 347.225 207.428 Q 332.186 218.519 313.249 220.529 Q 293.608 222.613 275.276 214.351 Q 256.298 205.798 244.016 188.551 Q 231.323 170.726 229.309 148.58 Q 227.231 125.725 237.093 104.611 Q 247.257 82.852 267.282 68.963 Q 287.892 54.666 313.249 52.649 Q 339.317 50.574 363.213 62.039 Q 387.753 73.813 403.251 96.617 Q 419.151 120.012 421.172 148.58 Q 423.243 177.861 410.175 204.54 Q 396.791 231.861 371.208 248.967 Q 345.029 266.471 313.249 268.494 Q 280.755 270.563 251.293 255.89 Q 221.191 240.899 202.477 212.534 Q 183.369 183.572 181.343 148.58 Q 179.277 112.873 195.554 80.629 Q 212.154 47.745 243.299 27.423 Q 275.045 6.71 313.249 4.683 Q 352.169 2.618 387.196 20.5 Q 422.862 38.708 444.791 72.634 Q 467.109 107.164 469.137 148.58 Q 471.201 190.713 451.714 228.523 Q 431.898 266.97 395.19 290.507 Q 371.867 305.461 344.796 311.987" style="stroke: black; fill-opacity: 0.12; fill: rgb(55, 41, 204);" bx:shape="spiral 313.249 148.58 0 166.424 0 1249.073 1@0742a0cb"/>
  <path d="M 115.142 154.259 Q 115.142 152.283 116.941 151.143 Q 118.862 149.926 121.374 150.661 Q 124.166 151.479 125.936 154.259 Q 127.924 157.383 127.606 161.455 Q 127.249 166.008 124.137 169.838 Q 120.69 174.081 115.142 175.847 Q 109.059 177.783 102.549 176.07 Q 95.477 174.21 90.215 168.651 Q 84.543 162.659 82.761 154.259 Q 80.852 145.266 83.983 136.269 Q 87.316 126.693 95.353 119.984 Q 103.867 112.878 115.142 111.084 Q 127.033 109.191 138.528 113.752 Q 150.607 118.545 158.764 129.074 Q 167.308 140.101 169.111 154.259 Q 170.993 169.045 164.996 183.042 Q 158.749 197.623 145.724 207.229 Q 132.188 217.213 115.142 219.022 Q 97.463 220.897 80.962 213.461 Q 63.879 205.762 52.824 190.238 Q 41.399 174.193 39.586 154.259 Q 37.715 133.687 46.592 114.682 Q 55.741 95.096 73.766 82.594 Q 92.318 69.725 115.142 67.909 Q 138.607 66.042 160.116 76.362 Q 182.205 86.96 196.155 107.486 Q 210.467 128.544 212.286 154.259 Q 214.15 180.616 202.387 204.63 Q 190.34 229.222 167.312 244.62 Q 143.748 260.375 115.142 262.197 Q 85.893 264.059 59.374 250.852 Q 32.278 237.357 15.434 211.826 Q -1.766 185.756 -3.589 154.259 Q -5.449 122.118 9.202 93.094 Q 24.144 63.495 52.178 45.203 Q 80.754 26.558 115.142 24.734 Q 150.175 22.875 181.704 38.971 Q 213.807 55.361 233.546 85.899 Q 253.635 116.979 255.461 154.259 Q 257.318 192.184 239.778 226.217 Q 232.087 241.139 221.136 253.944" style="stroke: black; fill: rgb(180, 131, 101); fill-opacity: 0.21;" bx:shape="spiral 115.142 154.259 0 145.505 0 1213.243 1@225f5b28"/>
  <path d="M 348.58 282.334 Q 348.58 280.131 350.586 278.86 Q 352.728 277.503 355.528 278.323 Q 358.641 279.234 360.614 282.334 Q 362.832 285.817 362.476 290.357 Q 362.079 295.433 358.609 299.704 Q 354.766 304.434 348.58 306.403 Q 341.798 308.561 334.54 306.652 Q 326.654 304.578 320.788 298.38 Q 314.464 291.699 312.477 282.334 Q 310.349 272.307 313.84 262.277 Q 317.555 251.6 326.517 244.12 Q 336.009 236.197 348.58 234.197 Q 361.838 232.087 374.654 237.172 Q 388.121 242.515 397.216 254.254 Q 406.742 266.548 408.752 282.334 Q 410.851 298.82 404.164 314.426 Q 397.199 330.682 382.677 341.392 Q 367.585 352.524 348.58 354.54 Q 328.869 356.631 310.471 348.34 Q 291.425 339.756 279.1 322.448 Q 266.361 304.56 264.34 282.334 Q 262.254 259.397 272.152 238.208 Q 282.352 216.371 302.448 202.432 Q 323.132 188.084 348.58 186.059 Q 374.742 183.977 398.723 195.484 Q 423.351 207.3 438.904 230.185 Q 454.861 253.664 456.889 282.334 Q 458.968 311.72 445.852 338.494 Q 432.421 365.913 406.746 383.08 Q 380.474 400.647 348.58 402.677 Q 315.969 404.753 286.403 390.028 Q 257.371 375.57 238.802 348.58" style="stroke: black; fill-opacity: 0.04; fill: rgb(59, 69, 23);" bx:shape="spiral 348.58 282.334 0 128.218 0 958.891 1@cf5816e9"/>
</svg>