<?xml version="1.0" standalone="no"?>
<!DOCTYPE svg PUBLIC "-//W3C//DTD SVG 20010904//EN"
 "http://www.w3.org/TR/2001/REC-SVG-20010904/DTD/svg10.dtd">
<svg version="1.0" xmlns="http://www.w3.org/2000/svg"
 width="800.000000pt" height="600.000000pt" viewBox="0 0 800.000000 600.000000"
 preserveAspectRatio="xMidYMid meet">
<metadata>
Created by potrace 1.16, written by Peter Selinger 2001-2019
</metadata>
<g transform="translate(0.000000,600.000000) scale(0.100000,-0.100000)"
fill="#000000" stroke="none">
<path d="M3770 3421 l0 -621 100 0 100 0 0 615 0 615 -84 0 c-46 0 -91 3 -100
6 -15 6 -16 -53 -16 -615z"/>
<path d="M910 3415 l0 -615 115 0 115 0 0 250 0 250 190 0 190 0 0 105 0 105
-190 0 -190 0 0 150 c0 112 3 151 13 152 6 1 95 2 197 3 l185 0 3 108 3 107
-316 0 -315 0 0 -615z"/>
<path d="M1900 3734 c-19 -8 -50 -29 -67 -46 l-33 -32 0 32 0 32 -100 0 -100
0 0 -460 0 -460 110 0 110 0 0 298 c0 289 1 299 23 342 24 50 76 85 139 95
l38 7 0 104 0 104 -42 0 c-24 -1 -59 -8 -78 -16z"/>
<path d="M2295 3626 c-148 -36 -280 -170 -315 -318 -53 -231 84 -465 306 -523
193 -50 404 41 483 210 12 25 21 48 21 52 0 5 -45 8 -100 7 -99 0 -101 0 -129
-31 -45 -49 -88 -67 -161 -68 -83 0 -148 35 -191 103 -16 25 -29 50 -29 54 0
4 142 8 315 8 l314 0 7 36 c4 20 2 69 -3 108 -36 253 -276 421 -518 362z m158
-177 c21 -6 56 -27 78 -46 43 -39 84 -107 74 -123 -4 -6 -90 -10 -211 -10
-234 0 -235 0 -188 77 33 53 64 78 120 98 48 17 77 18 127 4z"/>
<path d="M3202 3629 c-117 -23 -242 -120 -295 -229 -38 -80 -53 -184 -38 -269
16 -91 48 -155 109 -222 189 -207 536 -173 673 66 49 85 46 89 -71 82 -95 -5
-102 -7 -122 -32 -27 -35 -112 -75 -158 -75 -58 0 -109 19 -151 57 -39 35 -69
80 -69 103 0 7 102 10 315 10 l315 0 0 73 c-1 138 -40 236 -130 321 -109 104
-237 143 -378 115z m195 -205 c26 -15 57 -45 74 -72 51 -80 57 -77 -186 -77
-118 0 -215 4 -215 8 0 20 41 85 73 115 69 67 167 77 254 26z"/>
<path d="M4342 3630 c-102 -22 -207 -103 -267 -205 -53 -89 -70 -241 -39 -346
23 -77 46 -118 98 -176 140 -155 364 -175 531 -47 l35 26 0 -41 0 -41 90 0 90
0 0 405 0 405 -90 0 -90 0 0 -41 0 -41 -35 26 c-89 68 -217 98 -323 76z m216
-194 c166 -86 178 -351 20 -449 -70 -43 -150 -48 -222 -13 -88 43 -136 125
-136 232 0 30 7 73 16 96 17 44 73 111 109 131 55 30 158 31 213 3z"/>
<path d="M5287 3630 c-47 -12 -95 -36 -124 -63 -13 -11 -24 -17 -24 -14 -1 4
-3 12 -4 17 -1 6 -3 17 -4 25 -1 12 -18 15 -91 15 l-90 0 0 -405 0 -405 99 0
100 0 3 268 3 267 27 47 c22 36 38 50 73 63 84 33 152 5 195 -81 24 -48 25
-55 28 -306 l3 -258 95 0 95 0 -3 303 -3 302 -26 56 c-32 67 -87 125 -143 150
-50 22 -157 32 -209 19z"/>
<path d="M6060 3629 c-114 -22 -241 -122 -294 -231 -79 -161 -50 -355 71 -488
161 -176 433 -186 613 -24 37 33 119 173 103 175 -4 0 -54 0 -111 -1 l-104 -2
-34 -38 c-144 -160 -402 -18 -381 210 9 108 82 197 178 220 85 21 153 -2 211
-70 l35 -40 107 0 c107 0 107 0 100 23 -27 88 -116 186 -206 229 -91 43 -190
56 -288 37z"/>
<path d="M6932 3629 c-118 -23 -240 -118 -294 -231 -56 -115 -56 -273 -1 -388
37 -75 127 -163 205 -200 198 -93 451 -10 548 180 34 66 26 73 -83 68 -92 -5
-92 -5 -133 -45 -84 -81 -210 -83 -295 -6 -39 35 -69 80 -69 103 0 7 102 10
316 10 l316 0 -4 98 c-6 129 -30 190 -110 276 -108 119 -245 165 -396 135z
m142 -180 c24 -6 60 -24 80 -41 37 -30 80 -101 74 -120 -3 -9 -417 -13 -426
-3 -2 1 6 21 17 42 24 49 91 110 128 119 16 3 33 7 38 9 20 7 47 5 89 -6z"/>
</g>
</svg>
