<?xml version="1.0" standalone="no"?>
<!DOCTYPE svg PUBLIC "-//W3C//DTD SVG 20010904//EN"
 "http://www.w3.org/TR/2001/REC-SVG-20010904/DTD/svg10.dtd">
<svg version="1.0" xmlns="http://www.w3.org/2000/svg"
 width="100.000000pt" height="100.000000pt" viewBox="0 0 100.000000 100.000000"
 preserveAspectRatio="xMidYMid meet">
<metadata>
Created by potrace 1.16, written by Peter Selinger 2001-2019
</metadata>
<g transform="translate(0.000000,100.000000) scale(0.100000,-0.100000)"
fill="#ffffffff" stroke="none">
<path d="M0 500 l0 -500 500 0 500 0 0 500 0 500 -500 0 -500 0 0 -500z m605
365 c22 -10 55 -17 73 -16 46 2 72 -7 72 -26 0 -20 -52 -13 -135 17 -152 56
-333 -14 -405 -157 -29 -57 -40 -176 -20 -224 21 -50 72 -73 109 -50 11 7 11
16 -4 54 -25 67 -19 244 11 284 12 15 33 29 47 31 21 3 29 -3 43 -30 22 -43
22 -201 0 -273 -10 -32 -12 -53 -6 -59 7 -7 10 -2 10 12 0 37 27 78 60 92 27
11 33 10 50 -5 26 -24 26 -75 -1 -109 -15 -19 -17 -26 -7 -26 23 0 38 22 38
58 0 42 48 95 82 90 31 -4 34 -26 4 -37 -41 -16 -63 -82 -31 -95 19 -7 45 31
45 66 0 21 5 28 20 28 14 0 20 -7 20 -22 0 -12 9 -32 21 -44 24 -26 17 -48
-13 -41 -12 4 -29 -2 -42 -14 -15 -15 -30 -19 -54 -15 -18 3 -44 -1 -60 -10
-34 -17 -62 -18 -87 -1 -11 7 -37 18 -57 25 -32 11 -41 11 -60 -2 -28 -20 -90
-21 -126 -2 -15 8 -38 34 -52 58 -34 59 -36 189 -3 260 40 87 127 165 216 194
55 18 189 12 242 -11z m-5 -32 c71 -23 150 -96 189 -175 80 -160 5 -355 -167
-436 -50 -24 -69 -27 -162 -27 -91 0 -112 3 -154 24 -43 22 -106 88 -106 113
0 13 47 10 83 -6 37 -15 87 -69 87 -93 0 -25 162 -13 218 16 55 28 125 101
154 160 33 65 32 197 0 258 -32 61 -75 106 -125 133 l-45 24 -32 -27 c-22 -19
-43 -27 -70 -27 -56 0 -72 8 -60 31 26 48 102 61 190 32z"/>
</g>
</svg>
