<svg width="105" height="117" viewBox="0 0 105 117" aria-hidden="true" xmlns="http://www.w3.org/2000/svg">
<path d="M14.3746 74.4259C10.4411 74.4259 7.23965 71.2245 7.23965 67.291V41.3072C7.23965 34.0978 13.1089 28.2285 20.3184 28.2285H24.2271C25.2322 28.2285 26.0388 29.0351 26.0388 30.0402C26.0388 31.0453 25.2322 31.8518 24.2271 31.8518H20.3184C15.1067 31.8518 10.8754 36.0832 10.8754 41.2948V67.291C10.8754 69.2267 12.4513 70.7902 14.3746 70.7902C16.3104 70.7902 17.8739 69.2143 17.8739 67.291V47.1641C17.8739 46.159 18.6804 45.3525 19.6855 45.3525C20.6906 45.3525 21.4972 46.159 21.4972 47.1641V67.3034C21.5096 71.2369 18.3082 74.4259 14.3746 74.4259Z" fill="teal"/>
<path d="M31.6476 116.777H19.698C18.6929 116.777 17.8864 115.97 17.8864 114.965V63.9033C17.8864 62.8982 18.6929 62.0917 19.698 62.0917C20.7031 62.0917 21.5097 62.8982 21.5097 63.9033V113.141H29.8359V71.15C29.8359 70.1449 30.6425 69.3383 31.6476 69.3383C32.6527 69.3383 33.4592 70.1449 33.4592 71.15V114.965C33.4592 115.97 32.6527 116.777 31.6476 116.777Z" fill="teal"/>
<path d="M31.6475 24.1833C25.0461 24.1833 19.6731 18.8103 19.6731 12.2089C19.6731 5.60751 25.0461 0.234558 31.6475 0.234558C38.2489 0.234558 43.6218 5.60751 43.6218 12.2089C43.6218 18.8103 38.2489 24.1833 31.6475 24.1833ZM31.6475 3.87029C27.0439 3.87029 23.3089 7.61771 23.3089 12.2089C23.3089 16.8001 27.0563 20.5475 31.6475 20.5475C36.2511 20.5475 39.9861 16.8001 39.9861 12.2089C39.9861 7.61771 36.2511 3.87029 31.6475 3.87029Z" fill="teal"/>
<path d="M90.7128 74.4259C86.7792 74.4259 83.5778 71.2245 83.5778 67.2909V47.1641C83.5778 46.159 84.3843 45.3524 85.3894 45.3524C86.3945 45.3524 87.2011 46.159 87.2011 47.1641V67.3033C87.2011 69.2391 88.777 70.8026 90.7128 70.8026C92.6485 70.8026 94.212 69.2267 94.212 67.3033V41.3072C94.212 36.0956 89.9806 31.8642 84.769 31.8642H80.8727C79.8676 31.8642 79.061 31.0577 79.061 30.0526C79.061 29.0475 79.8676 28.2409 80.8727 28.2409H84.769C91.9784 28.2409 97.8477 34.1102 97.8477 41.3196V67.3158C97.8477 71.2369 94.6463 74.4259 90.7128 74.4259Z" fill="teal"/>
<path d="M85.3894 116.777H73.4398C72.4347 116.777 71.6282 115.97 71.6282 114.965V71.15C71.6282 70.1449 72.4347 69.3383 73.4398 69.3383C74.4449 69.3383 75.2515 70.1449 75.2515 71.15V113.153H83.5777V63.9033C83.5777 62.8982 84.3843 62.0917 85.3894 62.0917C86.3945 62.0917 87.201 62.8982 87.201 63.9033V114.965C87.201 115.97 86.3945 116.777 85.3894 116.777Z" fill="teal"/>
<path d="M63.2772 32.0131H41.8103C40.8052 32.0131 39.9986 31.2065 39.9986 30.2014C39.9986 29.1963 40.8052 28.3898 41.8103 28.3898H63.2896C64.2947 28.3898 65.1013 29.1963 65.1013 30.2014C65.1013 31.1941 64.2823 32.0131 63.2772 32.0131Z" fill="teal"/>
<path d="M73.4398 24.1833C66.8384 24.1833 61.4655 18.8103 61.4655 12.2089C61.4655 5.60751 66.8384 0.234558 73.4398 0.234558C80.0412 0.234558 85.4142 5.60751 85.4142 12.2089C85.4142 18.8103 80.0412 24.1833 73.4398 24.1833ZM73.4398 3.87029C68.8362 3.87029 65.0888 7.61771 65.0888 12.2089C65.0888 16.8001 68.8362 20.5475 73.4398 20.5475C78.0434 20.5475 81.7784 16.8001 81.7784 12.2089C81.7784 7.61771 78.0434 3.87029 73.4398 3.87029Z" fill="teal"/>
<path d="M102.426 117H2.66091C1.65581 117 0.849243 116.193 0.849243 115.188C0.849243 114.183 1.65581 113.377 2.66091 113.377H102.426C103.432 113.377 104.238 114.183 104.238 115.188C104.238 116.193 103.432 117 102.426 117Z" fill="teal"/>
<path d="M52.5437 116.777C51.5386 116.777 50.732 115.97 50.732 114.965V93.6965C50.732 92.6914 51.5386 91.8849 52.5437 91.8849C53.5488 91.8849 54.3553 92.6914 54.3553 93.6965V114.965C54.3553 115.97 53.5488 116.777 52.5437 116.777Z" fill="teal"/>
<path d="M44.689 90.8177C43.6839 90.8177 42.8773 90.0112 42.8773 89.0061V73.7434C42.8773 72.7383 43.6839 71.9318 44.689 71.9318C45.6941 71.9318 46.5007 72.7383 46.5007 73.7434V89.0061C46.5131 90.0112 45.6941 90.8177 44.689 90.8177Z" fill="teal"/>
<path d="M60.3983 116.777H52.5437H44.689C43.6839 116.777 42.8773 115.97 42.8773 114.965V90.8178H40.5197C38.0131 90.8178 35.9657 88.8448 35.9657 86.4127V70.8646C35.9657 65.5786 40.47 61.2852 45.9919 61.2852H59.083C64.6173 61.2852 69.1092 65.5786 69.1092 70.8646V86.4251C69.1092 88.8572 67.0618 90.8302 64.5552 90.8302H62.1976V114.977C62.21 115.97 61.391 116.777 60.3983 116.777ZM46.5131 113.153H52.5437H58.5743V89.0061C58.5743 88.001 59.3808 87.1944 60.3859 87.1944H64.5552C65.064 87.1944 65.4735 86.847 65.4735 86.4251V70.8646C65.4735 67.5763 62.6071 64.9085 59.0706 64.9085H45.9919C42.4678 64.9085 39.589 67.5763 39.589 70.8646V86.4251C39.589 86.847 39.9985 87.1944 40.5073 87.1944H44.6766C45.6817 87.1944 46.4882 88.001 46.4882 89.0061V113.153H46.5131Z" fill="teal"/>
<path d="M60.3984 90.8177C59.3933 90.8177 58.5867 90.0112 58.5867 89.0061V73.7434C58.5867 72.7383 59.3933 71.9318 60.3984 71.9318C61.4035 71.9318 62.2101 72.7383 62.2101 73.7434V89.0061C62.2101 90.0112 61.3911 90.8177 60.3984 90.8177Z" fill="teal"/>
<path d="M60.3984 88.6958H44.689C43.6839 88.6958 42.8773 87.8893 42.8773 86.8842C42.8773 85.8791 43.6839 85.0725 44.689 85.0725H60.386C61.3911 85.0725 62.1976 85.8791 62.1976 86.8842C62.21 87.8893 61.3911 88.6958 60.3984 88.6958Z" fill="teal"/>
<path d="M52.5437 58.2947C48.1014 58.2947 44.4904 54.6837 44.4904 50.2414C44.4904 45.7992 48.1014 42.1882 52.5437 42.1882C56.986 42.1882 60.5969 45.7992 60.5969 50.2414C60.5969 54.6837 56.986 58.2947 52.5437 58.2947ZM52.5437 45.8116C50.0992 45.8116 48.1138 47.7969 48.1138 50.2414C48.1138 52.686 50.0992 54.6713 52.5437 54.6713C54.9882 54.6713 56.9736 52.686 56.9736 50.2414C56.9736 47.7969 54.9882 45.8116 52.5437 45.8116Z" fill="teal"/>
</svg>
