<svg width="122" height="114" viewBox="0 0 122 114" xmlns="http://www.w3.org/2000/svg">
<path d="M121.216 39.954C120.461 37.8897 119.654 35.5344 118.887 33.2584C118.132 31.0354 117.418 28.9314 116.796 27.2509C115.883 24.7897 114.494 22.5799 112.667 20.7009L101.274 8.91094C98.0325 5.56316 93.7056 3.40629 89.0875 2.85053L69.1067 0.442249C65.3355 -0.00764954 61.5378 0.587805 58.0974 2.18892L27.0676 16.5989L23.0317 16.6121V14.8655C23.0317 13.9789 22.3172 13.2776 21.4438 13.2776H1.70122C0.814655 13.2776 0.113342 13.9921 0.113342 14.8655V55.2505C0.113342 56.1371 0.827888 56.8384 1.70122 56.8384H21.4438C22.3304 56.8384 23.0317 56.1239 23.0317 55.2505V48.9255L27.7292 48.9122C27.9012 49.0578 28.1129 49.1769 28.3379 49.2431C32.8369 53.4377 37.3756 55.449 44.5342 55.449C50.4623 55.449 58.1768 54.0729 69.1331 51.4264C69.1993 51.4132 69.2655 51.3867 69.3184 51.3735L85.2766 51.3602C85.2633 51.691 85.2633 52.0351 85.2633 52.3659C85.2633 54.8668 85.528 57.2618 86.0573 59.4849C84.6017 60.0539 83.2256 60.8478 81.9949 61.8799C77.4695 65.6511 75.6567 71.7248 77.3239 77.3088L75.3126 79.0158C74.651 79.5848 74.5584 80.5772 75.1141 81.252L75.4714 81.6887L74.7172 82.3106L74.3599 81.874C74.0953 81.5432 73.6983 81.3447 73.2748 81.305C72.8514 81.2653 72.428 81.3976 72.1104 81.6622L68.8156 84.4013C68.4847 84.666 68.2863 85.063 68.2466 85.4864C68.2069 85.9098 68.3392 86.32 68.6038 86.6508L69.7947 88.0799L69.0405 88.7018L67.8496 87.2727C67.2806 86.5979 66.2749 86.5053 65.6001 87.061L62.5567 89.5884C62.1729 89.906 61.9612 90.3823 61.9877 90.8719L62.2126 96.6809C62.2259 97.0382 62.3582 97.369 62.5831 97.6337L65.0046 100.545C65.2693 100.876 65.6663 101.074 66.0897 101.114C66.1426 101.114 66.1823 101.114 66.2353 101.114C66.6058 101.114 66.963 100.981 67.2541 100.743L84.7473 86.2142C86.6527 87.1934 88.717 87.7094 90.7944 87.7888V91.3483C90.7944 92.2349 91.509 92.9362 92.3823 92.9362H92.9381V93.9154H92.3823C91.4958 93.9154 90.7944 94.6299 90.7944 95.5033V99.7905C90.7944 100.677 91.509 101.378 92.3823 101.378H94.2481V102.358H92.3823C91.4958 102.358 90.7944 103.072 90.7944 103.945V107.915C90.7944 108.405 91.0194 108.881 91.4164 109.172L96.0212 112.718C96.2991 112.93 96.6431 113.049 96.9872 113.049H100.772C101.658 113.049 102.359 112.335 102.359 111.461V85.6981C107.705 83.4089 111.225 78.1292 111.225 72.2408C111.225 68.4035 109.743 64.9101 107.322 62.3034C108.354 59.4452 108.936 56.0709 108.936 52.3791C108.936 51.5984 108.909 50.8309 108.857 50.0635C109.187 50.2619 109.531 50.4472 109.889 50.606C111.966 51.519 114.269 51.5587 116.386 50.7251C120.686 49.0313 122.803 44.2942 121.216 39.954ZM111.159 47.6949C109.862 47.1259 108.87 46.0938 108.367 44.7838L103.762 32.1998C103.669 31.9484 103.511 31.7235 103.312 31.5382L90.0799 20.079C89.7888 19.8276 89.4183 19.6953 89.0478 19.6953L81.1613 19.6688L79.0441 19.6556L76.927 19.6423L72.5338 19.6291C72.5206 19.6291 72.5206 19.6291 72.5074 19.6291C71.3165 19.6291 70.1653 19.8938 69.1331 20.3966C68.6435 20.6348 68.1672 20.9259 67.7305 21.2699C67.4791 21.4684 67.2277 21.6801 67.0027 21.9183C66.8572 22.0639 66.7116 22.2227 66.5793 22.3814C66.4073 22.5932 66.2353 22.8049 66.0765 23.0298C65.7589 23.5062 65.481 24.009 65.2693 24.5383C65.0311 25.1338 64.8723 25.7689 64.7929 26.4173C64.7797 26.5496 64.7665 26.6687 64.7532 26.801C64.74 27.026 64.7268 27.2509 64.7268 27.4759C64.7268 27.8596 64.7665 28.2434 64.8194 28.6139C64.912 29.1696 65.0576 29.6989 65.2428 30.215C66.0235 32.2263 67.6246 33.8406 69.6227 34.6346C70.2182 34.8728 70.8401 35.0448 71.5017 35.1242C71.8325 35.1639 72.1633 35.1903 72.5074 35.1903H72.5206H73.6718H77.2975H80.6188H83.3711L91.2973 35.1771H91.3105C91.509 35.1771 91.6942 35.1903 91.8795 35.2036C92.6205 35.2697 93.3351 35.455 93.9967 35.7593C94.5789 36.024 95.1347 36.3812 95.6242 36.8179C95.7301 36.9105 95.836 37.0032 95.9418 37.109C96.4182 37.5854 96.8019 38.1279 97.1063 38.7101C97.3841 39.2527 97.5826 39.8216 97.7017 40.4171C97.7811 40.8538 97.834 41.3037 97.8208 41.7668C97.8208 42.005 97.8076 42.2299 97.7679 42.4549C97.5032 44.6117 96.18 46.451 94.3407 47.4302C93.7982 47.7213 93.216 47.9331 92.594 48.0521C92.1838 48.1315 91.7604 48.1845 91.3237 48.1845H90.9797H88.8096H87.1953H85.5941L69.0934 48.1977L69.0405 48.1845C68.6038 48.1183 68.1804 48.2242 67.8364 48.4888C43.4492 54.3375 37.1109 53.226 30.2301 46.5966C29.9655 46.0805 29.4229 45.7365 28.8143 45.7365L23.0979 45.7497V19.7879H26.7632C27.147 19.9202 27.5836 19.907 27.9541 19.7217L44.8651 11.8485L53.6778 7.75972L59.4471 5.08679C62.345 3.7371 65.5604 3.23427 68.7362 3.61801L88.7037 6.02629C92.6073 6.50265 96.2594 8.31548 98.9853 11.134L110.378 22.924C111.9 24.4986 113.051 26.3247 113.805 28.3757C114.414 30.0165 115.115 32.094 115.87 34.3038C116.65 36.593 117.458 38.9748 118.225 41.0787C119.217 43.7781 117.894 46.7289 115.221 47.7875C113.898 48.2771 112.456 48.2506 111.159 47.6949ZM103.524 81.3447C102.558 82.0857 101.46 82.6811 100.256 83.0913C99.6072 83.3163 99.1705 83.9117 99.1705 84.5998V85.5525V109.847H97.5297L93.9702 107.121V105.547H95.836C96.7225 105.547 97.4238 104.832 97.4238 103.959V99.7905C97.4238 98.904 96.7093 98.2026 95.836 98.2026H93.9702V97.1044H94.526C95.4125 97.1044 96.1138 96.3898 96.1138 95.5165V91.3483C96.1138 90.4617 95.3993 89.7604 94.526 89.7604H93.9702V87.5771V84.6131C93.9702 84.5204 93.957 84.4278 93.9437 84.3352C93.8379 83.7662 93.4409 83.2898 92.8851 83.1046C88.2274 81.5299 85.1045 77.1633 85.1045 72.2541C85.1045 67.5434 87.9627 63.4943 92.0383 61.7344C92.1441 61.6814 92.2632 61.6417 92.3691 61.602C92.3956 61.655 92.422 61.7079 92.4485 61.7608C92.7925 62.5018 93.163 63.1635 93.56 63.7192C92.6999 64.4602 92.1309 65.5056 91.9986 66.6833C91.9854 66.8553 91.9721 67.0273 91.9721 67.1993C91.9721 67.8477 92.1177 68.4961 92.3823 69.0783C92.5676 69.4885 92.819 69.8855 93.1233 70.2295C93.163 70.2692 93.2027 70.3089 93.2424 70.3486C94.1158 71.2749 95.3199 71.8042 96.5902 71.8042C96.9872 71.8042 97.3709 71.7512 97.7414 71.6586C98.1384 71.5527 98.5354 71.394 98.8926 71.1955C99.1837 71.1293 99.4748 71.0499 99.766 70.9573C100.666 70.653 101.513 70.2163 102.307 69.6341C103.206 68.9725 104.027 68.152 104.768 67.1728C105.152 66.6568 105.522 66.1143 105.866 65.532C107.242 67.4243 108.063 69.7531 108.063 72.2673C108.036 75.8797 106.316 79.2275 103.524 81.3447ZM88.4656 52.3791C88.4656 52.0351 88.4788 51.7043 88.4788 51.3602H90.6092C90.596 51.691 90.5827 52.0351 90.5827 52.3791C90.5827 52.6305 90.5827 52.8687 90.596 53.1201C90.596 53.1863 90.596 53.2524 90.596 53.3054C90.596 53.3054 90.596 53.3054 90.596 53.3186C90.596 53.4112 90.6092 53.5039 90.6092 53.5965C90.6092 53.6891 90.6224 53.7817 90.6224 53.8744C90.6224 53.9273 90.6224 53.9935 90.6357 54.0464C90.6357 54.1125 90.6489 54.1919 90.6489 54.2581C90.6621 54.364 90.6621 54.4566 90.6753 54.5624C90.6753 54.6286 90.6886 54.6815 90.6886 54.7477V54.7609C90.7018 54.9329 90.7283 55.105 90.7415 55.277C90.7547 55.3432 90.7547 55.4093 90.768 55.4755C90.768 55.4887 90.768 55.5019 90.768 55.5152C90.768 55.5416 90.7812 55.5681 90.7812 55.5946C90.8077 55.8063 90.8341 56.0048 90.8606 56.2165C90.8738 56.2694 90.8738 56.3223 90.8871 56.3753V56.3885C90.9003 56.4547 90.9135 56.5341 90.9268 56.6002C90.94 56.7193 90.9665 56.8252 90.9797 56.9443C90.9929 56.9972 90.9929 57.0501 91.0062 57.0898C91.0194 57.1427 91.0326 57.2089 91.0459 57.2618C91.0591 57.3545 91.0856 57.4471 91.0988 57.553C91.112 57.5926 91.112 57.6456 91.1253 57.6853C91.1517 57.8044 91.1782 57.9235 91.2046 58.0425C91.2179 58.0822 91.2179 58.1219 91.2311 58.1749C91.2443 58.2013 91.2443 58.2278 91.2576 58.2675C91.2708 58.3204 91.284 58.3734 91.2973 58.4263C91.3105 58.466 91.3105 58.4924 91.3237 58.5321C90.596 58.5321 89.8682 58.5983 89.1536 58.7042C89.1536 58.7042 89.1536 58.7042 89.1536 58.6909C88.7037 56.7193 88.4656 54.6021 88.4656 52.3791ZM95.5316 60.8346C95.5845 60.8346 95.6375 60.8213 95.6772 60.8213C95.7169 60.8213 95.7698 60.8081 95.8095 60.8081C95.9154 60.7949 96.0212 60.7949 96.1271 60.7949C96.1932 60.7949 96.2594 60.7949 96.3256 60.7949C96.4049 60.7949 96.4843 60.7949 96.5637 60.7949C96.6431 60.7949 96.7225 60.7949 96.8019 60.7949C96.8813 60.7949 96.9739 60.7949 97.0533 60.7949C97.146 60.7949 97.2386 60.8081 97.3312 60.8081C97.3974 60.8081 97.4768 60.8213 97.5429 60.8213C97.6356 60.8346 97.7414 60.8346 97.834 60.8478C97.887 60.8478 97.9399 60.861 97.9796 60.861C98.1648 60.8875 98.3633 60.914 98.5486 60.9404C98.5618 60.9404 98.5883 60.9404 98.6015 60.9537C98.1648 61.7741 97.7282 62.3431 97.3709 62.6474C97.2651 62.6342 97.1724 62.6209 97.0666 62.6077C96.9739 62.5945 96.8681 62.5945 96.7755 62.5812C96.7622 62.5812 96.7622 62.5812 96.749 62.5812C96.3785 62.2504 95.955 61.655 95.5316 60.8346ZM100.428 52.3791C100.428 52.6438 100.428 52.8952 100.414 53.1466C100.414 53.1995 100.414 53.2524 100.414 53.2921C100.348 55.1711 100.07 56.7325 99.7527 57.9367C99.7263 57.9367 99.713 57.9235 99.6866 57.9235C99.5013 57.8838 99.3028 57.8441 99.1176 57.8176C99.0514 57.8044 98.9853 57.7911 98.9191 57.7779C98.7338 57.7514 98.5353 57.725 98.3501 57.6985C98.2839 57.6853 98.2178 57.6853 98.1384 57.672C97.9399 57.6456 97.7546 57.6323 97.5562 57.6191C97.49 57.6191 97.4238 57.6059 97.3577 57.6059C97.093 57.5926 96.8416 57.5794 96.577 57.5794C96.352 57.5794 96.1403 57.5927 95.9154 57.5927C95.836 57.5927 95.7566 57.6059 95.6772 57.6059C95.5449 57.6191 95.4125 57.6191 95.2802 57.6323C95.1743 57.6456 95.0817 57.6456 94.9759 57.6588C94.9097 57.672 94.8303 57.672 94.7641 57.6853C94.6451 57.6985 94.5392 57.7117 94.4201 57.725C94.4201 57.6985 94.4069 57.672 94.4069 57.6456C94.3672 57.5 94.3407 57.3412 94.301 57.1824C94.2745 57.0766 94.2481 56.9707 94.2348 56.8516C94.2348 56.8384 94.2216 56.8119 94.2216 56.7987C94.1952 56.6796 94.1687 56.5473 94.1555 56.415C94.129 56.2826 94.1025 56.1371 94.0893 56.0048C94.0893 55.9915 94.0893 55.9783 94.0893 55.9651C94.0761 55.846 94.0496 55.7137 94.0364 55.5946C94.0099 55.4358 93.9967 55.277 93.9702 55.105C93.957 54.9726 93.9437 54.8403 93.9305 54.708C93.9173 54.5624 93.904 54.4169 93.8908 54.2581C93.8908 54.2184 93.8908 54.1655 93.8776 54.1258C93.8643 53.9935 93.8643 53.8479 93.8511 53.7156C93.8511 53.6097 93.8379 53.5171 93.8379 53.4112C93.8379 53.3451 93.8379 53.2921 93.8246 53.226C93.8114 52.9349 93.8114 52.6438 93.8114 52.3394C93.8114 51.8763 93.8246 51.4132 93.8511 50.9765C96.3388 50.3016 98.4295 48.6476 99.6998 46.4643C100.11 48.0786 100.428 50.037 100.428 52.3791ZM104.702 60.0671C104.543 60.6096 104.371 61.1389 104.172 61.6417C103.974 62.171 103.749 62.6739 103.511 63.137C103.325 63.4943 103.14 63.8515 102.942 64.1823C102.32 65.2012 101.618 66.0613 100.851 66.7097C100.361 67.1331 99.8321 67.464 99.2896 67.7154C98.8662 67.9006 98.4295 68.0462 97.9928 68.1256C97.887 68.1388 97.7943 68.152 97.6885 68.1653C97.6488 68.1653 97.6223 68.1785 97.5826 68.1785C97.5429 68.1785 97.5032 68.1785 97.4635 68.1917C97.3709 68.205 97.2651 68.205 97.1724 68.205C97.1327 68.205 97.1063 68.205 97.0666 68.205C96.8945 68.205 96.7358 68.1917 96.5637 68.1785H96.5505C96.3785 68.1653 96.1932 68.1256 96.0212 68.0859C95.8624 68.0462 95.6904 68.0065 95.5316 67.9536C95.5051 67.9403 95.4655 67.9271 95.439 67.9271C95.3993 67.9139 95.3596 67.9006 95.3199 67.8874C95.3199 67.8874 95.3199 67.8874 95.3199 67.8742C95.2273 67.7021 95.1479 67.4772 95.1479 67.1993C95.1479 67.1067 95.1611 67.0141 95.1743 66.9214C95.267 66.4451 95.5978 66.0481 96.0477 65.8761C96.1271 65.9025 96.2065 65.929 96.2859 65.9555C96.3123 65.9687 96.3388 65.9687 96.3652 65.9687C96.4182 65.9819 96.4843 65.9952 96.5373 66.0084C96.5637 66.0084 96.5902 66.0216 96.6167 66.0216C96.6828 66.0349 96.7358 66.0349 96.8019 66.0481C96.8151 66.0481 96.8416 66.0481 96.8548 66.0481C97.0666 66.0613 97.2915 66.0613 97.5032 66.0216C97.5562 66.0084 97.6091 66.0084 97.662 65.9952C97.7414 65.9819 97.8208 65.9555 97.9002 65.9422C97.9928 65.9158 98.0722 65.8893 98.1648 65.8496C98.6015 65.6908 99.0382 65.4129 99.4616 65.0292C100.15 64.4338 100.811 63.5604 101.407 62.4754C101.499 62.3166 101.579 62.1446 101.671 61.9725C101.685 61.9461 101.698 61.9064 101.711 61.8799C101.843 61.602 101.976 61.3109 102.095 61.0066C102.161 60.8346 102.227 60.6625 102.293 60.4905C102.399 60.2126 102.492 59.9348 102.584 59.6304C102.651 59.4055 102.717 59.1805 102.783 58.9556C103.22 57.3545 103.511 55.5152 103.59 53.4774C103.59 53.4377 103.59 53.4112 103.59 53.3715C103.603 53.0275 103.603 52.6967 103.603 52.3526C103.603 48.0521 102.545 44.056 100.957 41.5154C100.944 40.0863 100.613 38.6969 100.004 37.4398C103.378 39.5835 105.734 45.3792 105.734 52.3659C105.747 55.1844 105.376 57.8044 104.702 60.0671ZM97.1063 33.3775C96.8549 33.3775 96.6167 33.3907 96.3652 33.4172C94.8568 32.4777 93.1101 31.9749 91.284 31.9749H91.2708L86.097 31.9881C86.3087 31.5911 86.4939 31.1677 86.6395 30.7178C87.1159 29.2226 87.2614 26.8937 85.2369 24.3531C85.2236 24.3398 85.2104 24.3134 85.1972 24.3001L83.9401 22.8578L88.4391 22.871L100.917 33.6818L101.195 34.4493C99.9115 33.748 98.5354 33.3775 97.1063 33.3775ZM67.9025 27.4494C67.9025 26.801 68.0349 26.1659 68.2863 25.5837C68.4451 25.2132 68.6568 24.8691 68.9082 24.5515L71.6076 27.0392C72.6132 28.0581 73.0102 29.077 72.8382 30.162C72.7323 30.7972 72.4677 31.4059 72.0972 31.9881C70.1388 31.8161 68.5244 30.4135 68.0481 28.5609C67.9555 28.2037 67.9025 27.8332 67.9025 27.4494ZM73.8306 24.7633C73.8174 24.75 73.8041 24.7368 73.7777 24.7103L71.7796 22.871C72.0045 22.8313 72.2427 22.8181 72.4677 22.8181H72.4809L79.6661 22.8446L82.736 26.3644C83.6225 27.4759 83.9136 28.5477 83.6093 29.6063C83.3711 30.4796 82.7889 31.3 82.1008 31.9881L75.6037 32.0013C75.7361 31.6573 75.8287 31.3 75.9081 30.9428C76.2389 29.3946 76.133 27.0657 73.8306 24.7633ZM19.856 48.9255V53.6494H3.30233V16.4534H19.856V16.6121V18.2V19.7879V45.7365V47.3244V48.9255ZM85.3957 82.9325C84.8134 82.5753 84.0724 82.6282 83.5431 83.0649L66.4734 97.3028L65.4281 96.0458L65.2561 91.56L66.4734 90.5544L67.6643 91.9835C67.929 92.3143 68.326 92.5127 68.7494 92.5524C69.1728 92.5921 69.583 92.4598 69.9138 92.1952L73.1161 89.5355C73.7909 88.9665 73.8835 87.9608 73.3278 87.286L72.1369 85.8569L72.9705 85.1556L73.3278 85.5922C73.5924 85.923 73.9894 86.1215 74.4128 86.1612C74.8363 86.2009 75.2465 86.0686 75.5773 85.804L78.7795 83.1443C79.1103 82.8796 79.3088 82.4826 79.3485 82.0592C79.3882 81.6358 79.2559 81.2256 78.9912 80.8948L78.6207 80.4581L80.2483 79.0819C80.7643 78.6453 80.9496 77.9307 80.7114 77.2956C78.9515 72.704 80.3012 67.5169 84.0724 64.3676C84.2048 64.2617 84.3371 64.1559 84.4694 64.05C82.8815 66.3921 81.942 69.2239 81.942 72.2541C81.942 77.0309 84.2577 81.3976 87.976 84.1102C87.0762 83.8191 86.2161 83.4354 85.3957 82.9325Z" fill="fuchsia"/>
</svg>
