<svg width="82" height="101" viewBox="0 0 82 101" xmlns="http://www.w3.org/2000/svg">
<path d="M72.7265 40.8403V32.5823C72.7265 15.1311 58.5323 0.936951 41.0812 0.936951H40.4823C23.0417 0.936951 8.84752 15.1311 8.84752 32.5823V40.8403C3.85697 42.0275 0.127197 46.5138 0.127197 51.872V89.6636C0.127197 95.9149 5.2123 101 11.4636 101H70.1209C76.3722 101 81.4573 95.9149 81.4573 89.6636V51.872C81.4468 46.5138 77.7275 42.0275 72.7265 40.8403ZM78.1373 89.6636C78.1373 94.0868 74.5441 97.68 70.1209 97.68H11.4636C7.04041 97.68 3.44722 94.0868 3.44722 89.6636V51.872C3.44722 48.3629 5.7061 45.3791 8.84752 44.2969C9.37284 44.1183 9.92968 43.9817 10.5075 43.9187C10.8227 43.8766 11.1379 43.8556 11.4636 43.8556H12.1675H19.4275H21.0875H22.7475H58.8265H60.4865H62.1465H69.4065H70.1104C70.4361 43.8556 70.7513 43.8766 71.0665 43.9187C71.6443 43.9922 72.1907 44.1183 72.7265 44.2969C75.8679 45.3791 78.1268 48.3734 78.1268 51.872V89.6636H78.1373ZM40.4928 4.25698H41.0917C56.7147 4.25698 69.417 16.9592 69.417 32.5823V40.5356H62.157V32.5823C62.157 20.9727 52.7118 11.5169 41.0917 11.5169H40.4928C28.8832 11.5169 19.4275 20.9622 19.4275 32.5823V40.5356H12.1675V32.5823C12.1675 16.9592 24.8698 4.25698 40.4928 4.25698ZM58.8265 40.5356H22.7475V32.5823C22.7475 22.8008 30.7114 14.8369 40.4928 14.8369H41.0917C50.8731 14.8369 58.837 22.8008 58.837 32.5823V40.5356H58.8265Z" fill="red"/>
<path d="M49.98 66.8857C49.5703 65.1732 48.6772 63.6077 47.3744 62.3469C45.5253 60.5503 43.0773 59.6048 40.4927 59.6783C36.2166 59.8044 32.5814 62.8512 31.5833 66.8857C31.4467 67.4215 31.3627 67.9784 31.3311 68.5457C31.3311 68.5667 31.3311 68.5772 31.3311 68.5982C31.2996 69.1446 31.3206 69.6804 31.3837 70.2057C31.7304 73.158 33.4429 75.8161 36.0275 77.3186V84.9988C36.0275 87.6254 38.1603 89.7582 40.7869 89.7582C43.4135 89.7582 45.5463 87.6254 45.5463 84.9988V77.3291C48.1309 75.8267 49.8539 73.1895 50.1901 70.2162C50.2322 69.859 50.2532 69.5123 50.2532 69.1446C50.2532 68.945 50.2427 68.7453 50.2322 68.5562C50.2006 67.9784 50.1166 67.4215 49.98 66.8857ZM46.9331 69.1341C46.9331 69.5018 46.9016 69.859 46.8386 70.2057C46.4814 72.2124 45.1471 73.946 43.2244 74.776C42.615 75.0387 42.2263 75.6375 42.2263 76.2994V84.9882C42.2263 85.7762 41.5854 86.4276 40.7869 86.4276C39.9989 86.4276 39.3475 85.7867 39.3475 84.9882V76.2994C39.3475 75.6375 38.9588 75.0387 38.3494 74.776C36.4372 73.946 35.1029 72.2019 34.7352 70.2057C34.6512 69.7434 34.6196 69.2707 34.6512 68.7874C34.6512 68.7033 34.6722 68.6298 34.6722 68.5562C34.7247 67.9784 34.8613 67.4215 35.0714 66.8962C35.954 64.6794 38.0973 63.0719 40.5978 62.9983C40.6608 62.9983 40.7239 62.9983 40.7869 62.9983C42.3944 62.9983 43.9073 63.6077 45.063 64.7319C45.7039 65.3518 46.1872 66.0872 46.5024 66.8962C46.7125 67.4215 46.8491 67.9784 46.9016 68.5562C46.9226 68.7348 46.9331 68.9345 46.9331 69.1341Z" fill="red"/>
<path d="M12.2936 46.9025C12.2516 46.9025 12.2096 46.913 12.1571 46.913C11.5792 46.9235 11.0224 47.039 10.4971 47.2177C9.88768 47.4383 9.32033 47.7535 8.83704 48.1632C7.66032 49.1508 6.91437 50.6322 6.91437 52.2817C6.91437 53.9313 7.66032 55.4127 8.83704 56.4003C9.32033 56.81 9.88768 57.1252 10.4971 57.3458C11.0224 57.535 11.5792 57.64 12.1571 57.6505C12.1991 57.6505 12.2411 57.661 12.2936 57.661C15.2565 57.661 17.6729 55.2446 17.6729 52.2817C17.6729 49.3189 15.2565 46.9025 12.2936 46.9025ZM12.2936 54.341C12.2516 54.341 12.2096 54.341 12.1571 54.3305C11.4426 54.2885 10.8333 53.8787 10.4971 53.2904C10.3289 52.9962 10.2344 52.6495 10.2344 52.2817C10.2344 51.914 10.3289 51.5778 10.4971 51.2731C10.8333 50.6848 11.4426 50.275 12.1571 50.233C12.1991 50.233 12.2411 50.2225 12.2936 50.2225C13.4283 50.2225 14.3529 51.1471 14.3529 52.2817C14.3529 53.4164 13.4283 54.341 12.2936 54.341Z" fill="red"/>
<path d="M72.7265 48.1632C72.2432 47.7535 71.6758 47.4383 71.0664 47.2177C70.5411 47.0285 69.9843 46.9235 69.4064 46.913C69.3644 46.913 69.3224 46.9025 69.2698 46.9025C66.307 46.9025 63.8906 49.3189 63.8906 52.2817C63.8906 55.2446 66.307 57.661 69.2698 57.661C69.3119 57.661 69.3539 57.6505 69.4064 57.6505C69.9843 57.64 70.5411 57.5244 71.0664 57.3458C71.6758 57.1252 72.2432 56.81 72.7265 56.4003C73.9032 55.4127 74.6491 53.9313 74.6491 52.2817C74.6491 50.6322 73.9032 49.1508 72.7265 48.1632ZM71.0664 53.2904C70.7302 53.8787 70.1209 54.2885 69.4064 54.3305C69.3644 54.3305 69.3224 54.341 69.2698 54.341C68.1351 54.341 67.2106 53.4164 67.2106 52.2817C67.2106 51.1471 68.1351 50.2225 69.2698 50.2225C69.3119 50.2225 69.3539 50.2225 69.4064 50.233C70.1209 50.275 70.7302 50.6848 71.0664 51.2731C71.2345 51.5673 71.3291 51.914 71.3291 52.2817C71.3291 52.6495 71.2345 52.9962 71.0664 53.2904Z" fill="red"/>
<path d="M12.2936 83.8745C9.33084 83.8745 6.91437 86.291 6.91437 89.2538C6.91437 92.2166 9.33084 94.6331 12.2936 94.6331C15.2565 94.6331 17.6729 92.2166 17.6729 89.2538C17.6729 86.2805 15.2565 83.8745 12.2936 83.8745ZM12.2936 91.3025C11.159 91.3025 10.2344 90.378 10.2344 89.2433C10.2344 88.1086 11.159 87.184 12.2936 87.184C13.4283 87.184 14.3529 88.1086 14.3529 89.2433C14.3529 90.378 13.4283 91.3025 12.2936 91.3025Z" fill="red"/>
<path d="M69.2803 83.8745C66.3175 83.8745 63.901 86.291 63.901 89.2538C63.901 92.2166 66.3175 94.6331 69.2803 94.6331C72.2431 94.6331 74.6596 92.2166 74.6596 89.2538C74.6491 86.2805 72.2431 83.8745 69.2803 83.8745ZM69.2803 91.3025C68.1456 91.3025 67.221 90.378 67.221 89.2433C67.221 88.1086 68.1456 87.184 69.2803 87.184C70.415 87.184 71.3395 88.1086 71.3395 89.2433C71.329 90.378 70.415 91.3025 69.2803 91.3025Z" fill="red"/>
</svg>
