<?xml version="1.0" standalone="no"?>
<!DOCTYPE svg PUBLIC "-//W3C//DTD SVG 20010904//EN"
 "http://www.w3.org/TR/2001/REC-SVG-20010904/DTD/svg10.dtd">
<svg version="1.0" xmlns="http://www.w3.org/2000/svg"
 width="100.000000pt" height="100.000000pt" viewBox="0 0 100.000000 100.000000"
 preserveAspectRatio="xMidYMid meet">
<metadata>
Created by potrace 1.16, written by Peter Selinger 2001-2019
</metadata>
<g transform="translate(0.000000,100.000000) scale(0.100000,-0.100000)"
fill="#000000" stroke="none">
<path d="M371 835 c-180 -51 -284 -182 -285 -360 -1 -90 25 -162 82 -226 38
-44 129 -93 207 -114 77 -20 75 -20 75 14 0 25 -4 30 -37 36 -216 39 -326 243
-234 430 49 99 129 155 253 174 126 21 259 -27 322 -116 26 -37 29 -51 30
-116 0 -60 -4 -83 -25 -123 -34 -67 -97 -114 -153 -114 -24 0 -45 3 -49 6 -3
3 8 30 25 60 29 52 29 54 9 54 -14 0 -21 6 -21 20 0 25 37 28 42 4 2 -10 23
19 49 67 48 87 48 99 -1 99 -29 0 -64 -48 -54 -73 3 -10 -1 -17 -13 -20 -12
-3 -9 -5 10 -6 16 -1 27 -7 27 -15 0 -20 -27 -27 -43 -11 -12 11 -16 9 -31
-16 -14 -24 -15 -33 -6 -44 10 -12 9 -15 -7 -15 -11 0 -26 -14 -38 -35 -10
-20 -24 -34 -31 -31 -7 3 -14 0 -16 -6 -5 -13 -28 -2 -28 12 0 5 6 10 14 12
11 2 -3 36 -52 125 l-67 123 -38 0 -37 0 25 -50 c20 -40 22 -50 10 -50 -8 0
-15 -7 -15 -15 0 -8 7 -15 15 -15 8 0 15 6 15 13 0 8 4 7 10 -3 8 -13 10 -12
10 3 0 11 8 17 25 17 20 0 25 -5 25 -25 0 -18 -5 -25 -20 -25 -21 0 -27 -15
-10 -25 6 -3 10 -1 10 4 0 6 7 11 15 11 8 0 15 -7 15 -15 0 -8 -7 -15 -15 -15
-12 0 -13 -4 -3 -26 7 -15 14 -21 16 -15 6 17 32 13 32 -4 0 -8 -7 -15 -15
-15 -12 0 -11 -8 7 -45 l22 -45 126 0 c136 0 141 2 208 64 19 17 42 47 53 68
83 161 10 330 -173 400 -70 26 -197 32 -267 13z"/>
</g>
</svg>
